<svg xmlns="http://www.w3.org/2000/svg" viewBox="0 0 450.14 486.84"><defs><style>.cls-1{fill:#fff;}</style></defs><g id="Layer_2" data-name="Layer 2"><g id="Layer_1-2" data-name="Layer 1"><path class="cls-1" d="M45,417.31c.61-1.27,1-3.09,2.09-4.2,3.29-3.33,2.17-6.43.19-9.8-3.77-6.42-8-12.68-11-19.46C31.7,373.29,25.62,363.33,22.86,352a9.28,9.28,0,0,0-1.52-3.26c-4.73-6.34-6.38-13.84-8.71-21.2a278.23,278.23,0,0,1-9-36.31c-1-5.67-1.81-11.39-2.23-17.12C.76,265.53.27,257,.21,248.38c0-6.95,1.66-14,.82-20.83-1.68-13.49-.73-27-1-40.42C0,183.1.79,179,1.19,175c.55-5.5,1-11,1.66-16.49,1.9-14.51,6.57-28,14.85-40.19.13-.2.24-.46.43-.57,9.46-5.31,12.51-15.57,18.13-23.79A343.46,343.46,0,0,1,64,58.05a175.89,175.89,0,0,1,58.87-43.24c7.37-3.34,15.41-5.47,23.35-7.24C157,5.18,167.85,2.91,178.79,2,195.32.54,211.94-.55,228.58.3c8.88.46,17.78.74,26.64,1.45,17.93,1.43,35.84,2.59,53.2,8.2,16.53,5.34,31.19,13.91,44.79,24.31C364.66,43,375.5,52.56,386.6,61.77c.19.15.32.42.53.48,6.83,2.14,11,7.86,16.24,12.07,1.77,1.4,3.1,2.73,3.51,5.14,1.24,7.21,1.34,7.19,8.48,6.43,3.22-.35,5.05,1.76,4.19,4.84a4.26,4.26,0,0,1-.62,1.31c-2.6,3.6-2.15,6.68,1.48,9.3a5.83,5.83,0,0,1,2.41,5.71c-.35,3.27.9,6.08,2.26,9a220.22,220.22,0,0,1,12.75,35.21c3.32,11.8,6.28,23.71,7.75,35.83s4,24.19,3.54,36.57c-.2,5,1.39,10.11.94,15.06-1.5,16.73-.8,33.56-3.55,50.29-2.35,14.21-4.68,28.43-8.07,42.39a282.27,282.27,0,0,1-14.68,43.7,193.06,193.06,0,0,1-13.84,26.09c-6.81,11-16,19.83-25,28.91-10.25,10.37-22.21,18.32-34.63,25.78a195.64,195.64,0,0,1-40.66,18.48,229.4,229.4,0,0,1-34.94,8.48c-16.68,2.61-33.36,4.65-50.22,3.87A291.72,291.72,0,0,1,193,483.58a255.27,255.27,0,0,1-43.9-11.17A197,197,0,0,1,89,438.69c-6.71-5.45-12.88-11.59-19.14-17.58-6.49-6.2-9.88-6.82-18-3C49.63,419.2,47.15,421.52,45,417.31ZM266.5,136.39l-1.42,1.47c-3.52,2.77-7.25,5.33-10.53,8.37-8.75,8.08-17.35,16.33-25.91,24.61-.73.71-.79,2.12-1.16,3.2l-1.5,1.48L224.53,177a2.59,2.59,0,0,0-.65.18c-.12.06-.13.29-.19.44l.65-.8,1.45-1.45,1.5-1.48c1.09-.37,2.48-.43,3.24-1.15q16.22-15.27,32.22-30.75c1.08-1,1.44-2.83,2.14-4.28l1.43-1.46,1.5-1.48c.46-.48.93-.95,1.39-1.42l1.47-1.43a2.22,2.22,0,0,0,.66-.21c.12-.07.13-.29.19-.45l-.66.85-1.47,1.42-1.4,1.42Zm86.76,12.82,1.42-1.4,1.5-1.48a32.29,32.29,0,0,0,4.84-2.66c2.07-1.63,3.85-3.64,5.83-5.39,7.53-6.69,15.12-13.31,22.61-20,.71-.63.91-1.83,1.34-2.76a8.23,8.23,0,0,0-5.15,2.35c-5.36,4.82-10.79,9.57-15.93,14.61-4.62,4.51-8.92,9.37-13.35,14.08l-1.5,1.48-1.42,1.4a2.4,2.4,0,0,0-.64.21c-.11.07-.13.28-.19.42ZM363.4,336a2.36,2.36,0,0,0,.62-.18c.11-.07.13-.28.19-.43l-.62.8a3,3,0,0,0-.64.21c-.11.08-.13.29-.19.44ZM270.87,116.14l-1.45,1.44L267.94,119l-1.44,1.45-1.42,1.47-2.87,2.85-1.5,1.47c-1.44.72-3.16,1.14-4.29,2.19-8.82,8.17-17.52,16.46-26.27,24.7-7.7,7.25-15.46,14.43-23.1,21.75-4.76,4.55-9.36,9.29-14,14L194,190c2.59-1.92,5.43-3.59,7.74-5.8q24.76-23.73,49.35-47.63c1.56-1.51,3-3.29,4.81-4.33,2.55-1.44,3.7-3.64,4.66-6.13l1.49-1.48c2.07.17,3-.79,2.87-2.85l1.43-1.47,1.44-1.45,1.47-1.42c.48-.49,1-1,1.45-1.45a2.82,2.82,0,0,0,.64-.21c.11-.07.13-.28.2-.42ZM152.11,100.21l-1.47,1.42c-4-.1-4.4,3.28-5.71,5.79l-1.51,1.48a6.69,6.69,0,0,0-4.38,5.47c2.72-1.66,4.33-3,4.19-5.66l1.51-1.48c3.57-.29,5.52-2.16,5.72-5.78l1.47-1.43,1.5-1.48A14.13,14.13,0,0,0,155.8,97c9.91-9.44,19.85-18.84,29.65-28.38,9.49-9.23,18.84-18.59,28.22-27.91,1.1-1.09,2-2.37,3.15-3.72-4.26-1.8-6.26.9-8.4,3.1Q186.34,62.86,164.3,85.66c-2.84,2.93-5.85,5.72-8.56,8.77-1,1.15-1.44,2.85-2.12,4.3ZM334.6,271.1l-3.85,1.48.83,1.27,2.82-2.94a2.32,2.32,0,0,0,.66-.21c.11-.07.12-.29.18-.44ZM266.53,443.44a23,23,0,0,0-14,9c6.2-.69,10.71-3.9,13.82-9.21A2.19,2.19,0,0,0,267,443c.11-.07.13-.29.19-.44ZM221.64,247.93c-2,.77-4.21,1.18-5.91,2.35A200.91,200.91,0,0,0,182,279.47c-.49.53-.52,1.48-1,3.07,10.06-8.28,19.38-15.8,28.52-23.53,4.17-3.53,8-7.5,11.94-11.27a2.61,2.61,0,0,0,.63-.22c.11-.07.12-.28.18-.42Zm-158,63.51.18.18c-.41-2.6,1.6-3.84,3-5.41,5.32-5.82,10.66-11.62,15.94-17.47C86,285.18,89,281.4,92.32,278c7.92-8.12,16-16.11,24-24.1,2.57-2.55,5.32-4.9,7.92-7.39,5.21-5,10.71-9.74,15.44-15.16a29,29,0,0,1,8.12-6.87c3.1-1.68,5.93-3.92,7.1-7.76a14,14,0,0,0-1.84-1.51c-5.58-3-6.25-4.63-3.43-10,1.77-3.4,4.14-6.48,6-9.84.51-.93.08-2.38.08-4.4-1.57,1.08-2.35,1.56-3.07,2.13-3.67,2.87-5.74,6.88-8.21,10.72-3.61,5.61-8.56,10.37-12.25,15.95-9.69,14.67-21.78,27.39-32.92,40.85C89.8,272,79.15,282.38,69.49,293.63,62.8,301.43,57,310,50.58,318c-2.25,2.79-.56,4.54,1,6.23-8.44,8.91-9,13.38-2.66,20.2,6.35-7.54,12.73-15,19-22.58,4.73-5.74,9.09-11.79,14-17.4,8.67-10,17.29-20,26.54-29.46,5.94-6.06,10.18-13.34,15.75-19.61.13-.16-.3-.81-.77-2-2.26,1.9-4.32,3.69-6.43,5.39-11.27,9.1-21,19.72-30.7,30.43C79.15,297,71.2,304.05,63.64,311.44Zm89.56-52.07c4-.84,6.16-2.81,8.18-4.57q19.81-17.33,39.39-34.94c8-7.24,15.89-14.72,23.87-22q7.19-6.58,14.54-13c9.95-8.7,20-17.28,29.9-26,10.1-8.92,19.9-18.18,30.16-26.91,14.66-12.48,29.31-24.93,42.93-38.58,4.58-4.58,9.69-8.64,14.34-13.16,4.08-4,3.79-6.57-.9-9.92q-6.45-4.62-13.18-8.84a64,64,0,0,0-6.53-3.21c-4.08,2.51-5.23,5.13-3.45,9,1.6,3.46.5,6.44-2.19,9.14-2.36,2.37-4.29,5.17-6.51,7.69-7.94,9-15.85,18.08-23.91,27C290,121.89,280.23,132.85,270,143.38c-8.21,8.46-17,16.4-25.61,24.44q-18.75,17.44-37.71,34.69c-4.26,3.88-8.67,7.61-13.07,11.33-8.25,7-16.57,13.88-24.77,20.91a11.36,11.36,0,0,0-3.54,4.45c-2.14,6.31-6.43,11.2-10.21,16.45A33.35,33.35,0,0,0,153.2,259.37ZM295.65,42.1C288,37.86,282.24,40,277.13,45.45c-.16.17-.34.34-.51.51q-47.91,47.16-95.77,94.35c-8.2,8.12-15.95,16.69-23.93,25a219.29,219.29,0,0,0-21,26.43c-1.32,1.88-2.71,3.71-4.9,6.71,2.67-.41,4.17-.24,5.16-.87a103.87,103.87,0,0,0,10-7c13.25-10.74,26.29-21.74,38.21-34,9.41-9.66,18.63-19.5,28.06-29.12,11.64-11.88,23.42-23.62,35.13-35.44,1.86-1.88,3.59-3.89,5.43-5.8,6.51-6.75,12.91-13.61,19.59-20.2,6.85-6.75,14-13.18,20.94-19.87C294.58,45.18,295,43.48,295.65,42.1ZM46.15,287.76c2.42,3.66,1.57,6.49-1.62,8.88a31.74,31.74,0,0,0-3.6,3.55c-6.49,6.72-6.18,14.22,1.18,21.57a21.38,21.38,0,0,0,3.13-2.66c7.23-8.92,14.34-17.93,21.58-26.84,3.63-4.47,7.34-8.88,11.23-13.12,7.63-8.32,15.53-16.41,23.09-24.79,4.16-4.61,7.86-9.64,11.77-14.48,4.22-5.21,8.59-10.31,12.62-15.68,2.35-3.14,4.16-6.69,6.62-10.74-7.38-.9-8.65,7.18-14,8-.21-.87-.55-1.53-.39-1.69,1-1,2.11-1.87,3.21-2.75,5.2-4.11,5-6.57-1.34-11.28-1.93,1.95-4,3.86-5.89,6-7.81,9.09-15.45,18.32-23.31,27.37-5,5.79-10.36,11.34-15.53,17C65.5,266.44,56.16,276.74,46.15,287.76ZM176.64,447c3.36,1.13,5.48-.53,7.63-1.94q13.26-8.67,26.5-17.39c12.61-8.32,25.33-16.49,37.78-25.06,8.88-6.11,17.51-12.61,26-19.22s16.65-13.82,25.29-20.3c4.31-3.24,7.61-8.13,14.13-9.44l2.75,6.84c5.09-2.18,5.09-2.18,7.27-6.12-5.13-6-5.11-7.21.46-13.16,2.31-2.46,4.91-4.69,7-7.33,1.25-1.59,2.89-4.21,2.35-5.61-1.33-3.47.47-5.5,2-7.88,1.78-2.69,3.51-5.42,6.16-9.53-2.2,1.23-3.07,1.52-3.68,2.09-6.74,6.18-13.42,12.42-20.14,18.62-5.48,5.06-10.87,10.22-16.49,15.12q-20.94,18.22-42.05,36.23c-15.57,13.3-32.64,24.52-50,35.27A144.33,144.33,0,0,0,178,444.23,12.69,12.69,0,0,0,176.64,447ZM160.25,204.07c3.1-.43,5.41-2.4,7.56-4.65,9-9.39,17.92-18.83,26.95-28.18,15.39-16,30.76-31.92,46.31-47.72,6.06-6.16,12.66-11.81,18.88-17.83q25.46-24.61,50.8-49.36a46.51,46.51,0,0,0,3.58-3.58c2.4-2.89,1.38-5.49-2.34-6.19-4-.75-6.77,1-9.54,3.74-37.6,37.76-75.38,75.36-112.9,113.2-7.43,7.49-14.07,15.79-20.86,23.89a111,111,0,0,0-7.86,11.18C159.88,200.05,158.3,201.72,160.25,204.07Zm-3.82-57.17,1.24,1.21c1.4-.69,3-1.12,4.16-2.12,9-8,18.21-15.74,26.77-24.16,26.64-26.23,53-52.71,79.49-79.13a26.56,26.56,0,0,0,2.75-4c-5.1-3-9.72-3-14.17-.33a33.74,33.74,0,0,0-6.76,5.32C229.62,64.3,209.44,85,189.16,105.63c-11.49,11.68-21.66,24.46-31.49,37.53C156.92,144.16,156.83,145.64,156.43,146.9ZM243.92,37.29c-2-.93-3.41-2-4.83-2.09A14.37,14.37,0,0,0,228,39.3c-8.63,8.38-17.5,16.52-26.08,25q-20.62,20.28-41,40.85c-7.6,7.71-14.92,15.7-22.27,23.64a49.23,49.23,0,0,0-3.77,5.36l12,2c1.94-1.88,4.06-3.83,6.06-5.9,10.2-10.56,20.25-21.27,30.57-31.72C202,79.79,220.63,61.25,239.16,42.62,240.64,41.13,242,39.49,243.92,37.29Zm46.1,208c5.23-1,8.31-4.65,12-7.57,14-11.23,28.44-22,42.41-33.36,9.88-8,19.29-16.61,28.89-25,3.25-2.83,6.33-5.87,9.66-8.62,7.75-6.43,15.64-12.69,23.37-19.15a5.3,5.3,0,0,0,1.93-3.59c-.24-4.72-1.13-9.31-4.51-12.38-7,6.62-13.74,12.77-20.18,19.25-11.36,11.45-22.27,23.35-33.82,34.6-14.14,13.75-28.73,27-43.17,40.49-2.62,2.44-5.51,4.6-8.14,7C295.54,239.72,292.82,242.56,290,245.32Zm74.81-84.74-1.15-1c-3.07,1.82-6.46,3.26-9.17,5.51-13.29,11.07-26.45,22.31-39.57,33.59-5.48,4.7-10.63,9.78-16.13,14.44-11,9.32-22.15,18.44-33.16,27.74-1.73,1.46-4.17,2.81-3.17,6.15,3.16,1.43,6.2,1.53,9.16-1,9.7-8.27,19.55-16.35,29.15-24.73,10.15-8.85,20.22-17.82,30.09-27,10.58-9.83,20.91-19.95,31.29-30A24.43,24.43,0,0,0,364.83,160.58ZM123,420.75c1.38.46,1.86.8,2.26.72a22.52,22.52,0,0,0,2.71-.88c7.62-2.63,13.08-8.22,18-14.12a416.62,416.62,0,0,1,29.28-31.88,35.45,35.45,0,0,0,3-3.12c2-2.49,1.75-4.11-.69-6.14-2.92-2.41-6.17-2.47-9.11.07-4,3.46-8.13,6.82-11.8,10.6-12.26,12.61-22.68,26.7-32.56,41.19C123.47,418.09,123.4,419.36,123,420.75ZM35.57,293.18c5.08-5.83,9.59-11.1,14.22-16.25,5.45-6.08,11-12.05,16.53-18.09,8.72-9.59,17.26-19.36,26.17-28.78a288,288,0,0,0,25.43-30.28c1.28-1.78,4-3.58,2.78-7.38-1.88,1.52-3.42,2.57-4.74,3.86-5,4.89-10.06,9.72-14.83,14.82-12.33,13.16-24.51,26.46-36.76,39.7-6.86,7.41-13.77,14.77-20.6,22.21-2.59,2.82-5.12,5.72-7.46,8.76S31.67,288,35.57,293.18ZM177.79,37.76c-3,0-5.37,0-7.72,0-4.68-.1-7.61,2.12-9.34,6.42a12.86,12.86,0,0,1-3.08,4.67c-8.36,7.44-14.59,17.29-25.11,22.28C124.31,79.88,115.93,88.5,108,97.47c-2.74,3.09-3.1,7.14-1,11.65,1.4-1.16,2.35-1.83,3.17-2.64Q133.92,82.77,157.67,59c2.19-2.2,4-4.82,6.1-7.06A20.26,20.26,0,0,1,168.65,48,18.17,18.17,0,0,0,177.79,37.76ZM389.31,215.1l11.13,6.65c3.06-1.35,6.25-2.94,9.58-4.19,4-1.5,6.51,1.83,9.76,4.07.7-1.69,1.61-2.92,1.67-4.19a111.34,111.34,0,0,0-3.25-32c-.27-1.11-1.7-1.93-2.85-3.15Zm-276.1,69.45c-5.64,5.7-10.72,10.43-15.33,15.57-9.62,10.7-19,21.62-28.46,32.46-4.1,4.7-8.27,9.35-12.26,14.14a45.8,45.8,0,0,0-3.9,6c-2.29,3.87-1.11,7.51,1.22,10.78a4.14,4.14,0,0,0,3.68,1.24c1-.31,2.34-2.41,2.05-3.13-1.32-3.33.72-5.58,2.07-8a42.85,42.85,0,0,1,4.38-6.59q15.68-18.8,31.53-37.46c4.2-4.93,8.69-9.61,13-14.49C113.36,292.55,115.35,289.81,113.21,284.55ZM381.82,391.87c9.82-8.21,26.2-42.33,26-55.72a45.21,45.21,0,0,0-4.59,4.85c-3.7,5.32-7.25,10.74-10.78,16.17-1.18,1.8-2.57,3.64-3.11,5.66-1.78,6.53-6.25,11.25-10.22,16.36-1.7,2.21-3.05,4.69-4.19,6.47ZM198.09,36.92c-3.59-1.21-5.63.25-7.58,2.22C184.73,45,179,50.78,173.07,56.48c-4,3.83-8.31,7.31-12.22,11.21-3.74,3.72-7.07,7.85-10.71,11.68q-16.41,17.26-32.94,34.44c-2,2.06-3.69,4.23-3.88,7.26.87.14,1.53.43,1.7.25C142.56,93.38,170.07,65.41,198.09,36.92Zm-61.2,349.55c-10.94,5.53-21.14,10.6-29.67,18.47-5.66,5.22-5.69,6,.29,10.67.75.59,1.38,1.36,2.17,1.89,3.61,2.41,6.4,1.76,9.09-1.83,5.3-7.06,10.71-14,16-21.1C136.3,392.54,138.1,390.49,136.89,386.47ZM186,450c8,5.12,14.66,4.73,19.82-.41q13.81-13.75,27.56-27.59a24.66,24.66,0,0,0,2.52-3.63A474.45,474.45,0,0,0,186,450ZM295,254.26c-.83-.27-1.3-.57-1.72-.52a4.05,4.05,0,0,0-2,.64c-21.19,18.09-42.54,36-62,56a28.69,28.69,0,0,0-2.1,3.15c2.51-.83,3.78-.91,4.59-1.57q8.7-7,17.22-14.13,13.46-11.38,26.79-22.92c5.63-4.87,11.18-9.84,16.69-14.85C294,258.66,296,257.31,295,254.26Zm50.9,83.19c4.52,1.17,6.56-1.21,8.73-3.36q12-12,24.08-24c2.4-2.37,4.9-4.62,7.33-7,9.35-9,18.73-18,28-27.1.95-.95,1.09-2.72,2.09-5.39-2.83,1.16-4.55,1.44-5.69,2.41-5.46,4.7-11,9.37-16.08,14.45-5.78,5.75-11.14,11.94-16.69,17.92-1,1.06-2.12,2-3,3.13a135.41,135.41,0,0,1-22.85,22.86A66.9,66.9,0,0,0,345.86,337.45ZM153.46,159.64c-2.17-2.55-4.87-4.41-5.51-6.82-.71-2.67.47-5.83,1-10.24-5.31,4.66-10.53,7.17-11.65,13.67-.38,2.2-2.12,4.22-3.45,6.18-3.11,4.55-6.42,8.95-9.46,13.55-.79,1.2-.86,2.87-1.65,5.78,6.36-5.36,10.54-12.42,19-7.56ZM114.12,328.79c5.54-4,23.23-27,24.66-32.19l-8.71-3.7c-2.14,1.44-4,2.59-5.69,3.87-2.07,1.53-3.45,3.65-2.62,6.2,1.38,4.25-.65,7.37-2.81,10.55s-4.36,6.29-6.46,9.49C110.83,325.55,111.61,327.44,114.12,328.79Zm62.57,24.47c2.4-2,4.09-3.25,5.56-4.71q17.19-17.08,34.3-34.23a22.22,22.22,0,0,0,2.79-3.28c.18-.28-.48-1.13-1-2.26-15.12,12.81-31.13,24.08-44.73,38.42C174.59,349.15,175.34,350.6,176.69,353.26Zm190.19-57.2c1.7-1.16,2.67-1.7,3.48-2.41,5.06-4.41,10.19-8.76,15.1-13.34,8.25-7.7,16.54-15.38,24.4-23.47,2.12-2.19,4.8-4.87,4.75-9.09C400.19,258.52,371.71,287.16,366.88,296.06ZM339.44,150l.72.78c1.25-.94,2.55-1.8,3.72-2.83,5-4.45,10-8.94,15-13.42,8.58-7.67,17.22-15.28,25.7-23.06,3.66-3.35,4.35-5.46,2.66-6.38-2.94-1.59-4.32,1.09-5.91,2.67Q361.11,127.85,341,148.07A21.3,21.3,0,0,0,339.44,150Zm-266,13L72,162.41c-1.62,2-3.35,3.86-4.86,5.91Q55,184.77,43,201.34c-.66.91-.51,2.4-.87,4.29,5.16-4.42,29.31-35.34,31.37-40.07C73.84,164.83,73.49,163.8,73.44,162.92Zm72.21,80c1.52-1.35,2.94-2.83,4.57-4,8.07-5.8,14.47-13.26,20.71-20.86.86-1.06.94-2.76,1.69-5.16-2.44.61-4.06.54-4.94,1.31A87.92,87.92,0,0,0,145.65,242.94ZM424,230.11c-3-.25-4.4-.82-5-.35a70.14,70.14,0,0,0-8.83,7.26c-6.32,6.45-12.41,13.12-18.53,19.75a15.57,15.57,0,0,0-1.77,3.12,26.57,26.57,0,0,0,6-4.3C403,249.7,410.3,244,417.38,238,419.47,236.18,421,233.71,424,230.11ZM85.47,364.42l4.35,3.87c2.93-7.28,9.32-11.61,10.49-19.29.36-2.34,2.77-4.36,4.21-6.55.83-1.24,1.62-2.51,2.91-4.52C100.23,340.74,90.59,352.6,85.47,364.42Zm45-17.86-1.19-1.33c-3.06,2.59-6.18,5.1-9.14,7.79-3.73,3.39-7.32,6.93-11,10.39-5.56,5.27-11.17,10.49-16.65,15.84-.57.55-.44,1.83-.95,4.25C106.26,371.47,118.43,359.1,130.45,346.56ZM377.67,183.43c3.87,1.06,6.38-.42,8.35-2.4,7.1-7.19,14.2-14.36,23.27-19.15.21-.12.51-.25.56-.43.34-1.28.63-2.58.93-3.88a22.5,22.5,0,0,0-3.85,0c-.59.09-1.07.91-1.62,1.37C396.85,166,388.37,173,380,180.11,379.13,180.8,378.68,181.93,377.67,183.43ZM179.86,433.79c-1.57-.16-2.65-.64-3.3-.29a25.66,25.66,0,0,1-11.79,2.7c-1.94.05-4,1.42-5.73,2.65a3,3,0,0,0,.11,4.95c2.84,2.06,6,3.4,9.38,1.4A33.25,33.25,0,0,0,179.86,433.79Zm-78.52-38.64c-3.43-1.29-6.28-2.45-9.19-3.42-3.06-1-5.39.69-5.34,3.75,0,2.72,5.12,8.6,7.78,8.56a4.92,4.92,0,0,0,3.57-1.87A51.42,51.42,0,0,0,101.34,395.15Zm297-70.35c2.64,2,4.78.94,6.94-.08,4.31-2,5.47-6.43,7.43-10.16.89-1.68,2.61-3.63,0-6A53.27,53.27,0,0,0,398.3,324.8Zm-6.93-190.93a63.61,63.61,0,0,0-16.61,12.2,2.33,2.33,0,0,0-.77,1.17c-.08.88-.27,2.3.17,2.57.85.52,2.56.95,3.1.48C382.73,145.51,388.36,140.83,391.37,133.87ZM192.15,351.56C199.59,347,207,342.44,211,334.28,203.16,338.36,197.57,344.91,192.15,351.56Zm182.39,9.32c8.43-2,10.32-8.22,13.08-13.58C383,350.92,378.22,354.43,374.54,360.88ZM158,271.25c-4.93,4.18-11.27,6.86-14.77,13.75C148.56,283.13,153.68,278.35,158,271.25Zm249.7-44.83c-6.67.4-8.6,2.52-8.85,9.29C402.39,233.26,406.66,231.77,407.74,226.42ZM121.17,269.06c4-1.67,5.8-5.06,7.27-8.73C122.72,264.44,122.72,264.44,121.17,269.06Zm13.46,156.83c-2.09-2-4-1.61-5.56-.47a3.25,3.25,0,0,0-.92,2.93,2.12,2.12,0,0,0,3.45,1.12A22.48,22.48,0,0,0,134.63,425.89ZM338.4,426c-2.21,2.67-5.94,2.68-6.49,6.47C337.09,432.49,337.58,432,338.4,426Zm76.73-249.1c.3-2.38,1.38-4.22-.8-5.48a2.52,2.52,0,0,0-2.4.57C410.6,174.37,411.88,175.73,415.13,176.85ZM284.35,442.93l-7.12,5.16C280.87,448.89,282.62,447.27,284.35,442.93ZM214.74,184.42l1.31,1.33q2.26-2.75,4.51-5.5l-.49-.58Zm208.4,74.9c-1.16-.54-2-1.14-2.19-1a10.15,10.15,0,0,0-2.09,2.43c-.08.11,1.06,1.23,1.13,1.18C421,261.25,421.86,260.42,423.14,259.32ZM380.58,98.91a7.84,7.84,0,0,0-.74,1.59c0,.13.9.68,1,.6a7.64,7.64,0,0,0,1-1.39Z"/></g></g></svg>